<svg xmlns="http://www.w3.org/2000/svg" viewBox="0 0 72.32 72.32"><defs><style>.cls-1,.cls-3{fill:none;}.cls-1,.cls-3,.cls-4{stroke:#ed2a1d;}.cls-1{stroke-miterlimit:10;}.cls-2,.cls-4{fill:#ed2a1d;}.cls-3,.cls-4{stroke-linecap:round;stroke-linejoin:round;}</style></defs><g id="Calque_2" data-name="Calque 2"><g id="ORANGE"><rect class="cls-1" x="0.5" y="0.5" width="71.32" height="71.32"/><path class="cls-2" d="M.27.31C3.29,1,6.61,3,6.69,6.09c0,1.85-1.1,3.54-1.22,5.38C5.24,15.11,9,18.23,8.4,21.83c-.44,2.55-3,4.26-3.8,6.71C4,30.2,4.29,32,4,33.75S2.49,37.34.73,37.29Z"/><path class="cls-2" d="M.37,61.8C1,60.46,2,60.47,3.42,60c1.81-.63,4-1.2,5.49.07s1.25,3.83,2.69,5.18a4.63,4.63,0,0,0,4.26.65,24.47,24.47,0,0,1,4.34-1.11c1.49-.08,3.2.66,3.56,2.11.22.86-.06,1.89.48,2.6.33.44.88.64,1.29,1s.65,1.08.22,1.42L.5,71.82Z"/><path class="cls-2" d="M71.64,16.77c-1.19-.18-1.55-1.73-1.46-2.93s.31-2.61-.57-3.43-2.2-.56-3.35-.78a4,4,0,0,1-2.72-2c-.62-1.16-.73-2.69-1.83-3.4a2.34,2.34,0,0,0-3,.74c-.3.44-.5,1-1,1.25a1.86,1.86,0,0,1-.81.2A6.29,6.29,0,0,1,50.53.67L71.82.5Z"/><path class="cls-2" d="M51.3,71.86c-.36-.66.12-1.47.71-1.93a7.88,7.88,0,0,0,1.76-1.36,6.83,6.83,0,0,0,.72-2.21,4.63,4.63,0,0,1,4.2-3.19,8.25,8.25,0,0,0,2.17-.07A3.66,3.66,0,0,0,63,60.24a11,11,0,0,1,1-3.57,4.93,4.93,0,0,1,3.42-2,14.71,14.71,0,0,1,4.08.11l.32,17.07Z"/><path class="cls-2" d="M21.57,18.12S14.46,26,13.88,30.62c0,0,8.85,1.35,15.77-10,0,0,3.27,8.85,18.27,9.23a16.34,16.34,0,0,0-8.08-10.19s8.84,5.58,15.77,6c0,0-1.16-8.07-13.27-11.15,0,0,3-6,6.07-5.73,0,0-10.72-2.65-16.61,6a19.2,19.2,0,0,0-18-6S12.64,15.06,21.57,18.12Z"/><path class="cls-2" d="M29.52,7.49c-.08-.13-.16-.3-.07-.42a.38.38,0,0,1,.26-.13c.61-.12,1.35-.19,1.75.29a1.74,1.74,0,0,1,.28.67A20.92,20.92,0,0,1,32,16.67c-1.6-1.26-.89-2.53-1-4.32A11.26,11.26,0,0,0,29.52,7.49Z"/><path class="cls-1" d="M17.2,29.87c.21,5.92,0,9.93,1.69,17.08a14.94,14.94,0,0,0,2,4.4,30.72,30.72,0,0,0,4.26,4.35,27.46,27.46,0,0,0,6,4.37A13.62,13.62,0,0,0,39,61.67a13.25,13.25,0,0,0,7.38-3.83,33.4,33.4,0,0,0,5.76-7.18,17.54,17.54,0,0,0,1.37-3.07,16.25,16.25,0,0,0,.61-4c.28-5.14-.61-14.06-1.28-19.16"/><path class="cls-1" d="M33.37,60.93a15.6,15.6,0,0,1-2.6,8.13,6.91,6.91,0,0,1-3.5,2.73"/><path class="cls-1" d="M42.27,60.93a15.6,15.6,0,0,0,2.6,8.13,6.87,6.87,0,0,0,3.5,2.73"/><circle class="cls-1" cx="22.15" cy="40.62" r="0.67"/><circle class="cls-1" cx="24.04" cy="46.29" r="0.67"/><circle class="cls-1" cx="27.59" cy="42.28" r="0.56"/><circle class="cls-1" cx="29.93" cy="48.29" r="0.56"/><circle class="cls-1" cx="49.83" cy="40.62" r="0.67"/><circle class="cls-1" cx="47.94" cy="46.29" r="0.67"/><circle class="cls-1" cx="44.38" cy="42.28" r="0.56"/><circle class="cls-1" cx="42.05" cy="48.29" r="0.56"/><path class="cls-3" d="M35.2,55.75a5.38,5.38,0,0,0,4.41-.06"/><ellipse class="cls-3" cx="27.23" cy="33.46" rx="1.75" ry="1.3"/><ellipse class="cls-3" cx="44.39" cy="33.46" rx="1.75" ry="1.3"/><path class="cls-3" d="M23.83,32.5a8.08,8.08,0,0,1,7.08.12"/><path class="cls-3" d="M48,32.56a8,8,0,0,0-7.08.12"/><path class="cls-3" d="M30.77,34.37a8.08,8.08,0,0,1-7.08-.11"/><path class="cls-3" d="M48,34.47a8.08,8.08,0,0,1-7.08-.11"/><path class="cls-4" d="M8,47.28a2.61,2.61,0,0,0,.17,2.35,13.78,13.78,0,0,0,1.45,2,6.7,6.7,0,0,0,1.09,1.22,1.56,1.56,0,0,0,1.54.27,2.16,2.16,0,0,0,.94-1.31,14.24,14.24,0,0,0,1-4.11,1.81,1.81,0,0,0-.18-1,2,2,0,0,0-.72-.56C11.72,45.33,9,45.27,8,47.28Z"/><path class="cls-4" d="M57.39,17a2.61,2.61,0,0,0,1.2,2,13.91,13.91,0,0,0,2.18,1.1,6.59,6.59,0,0,0,1.52.6,1.6,1.6,0,0,0,1.5-.45A2.18,2.18,0,0,0,64,18.72a14.43,14.43,0,0,0-1-4.11,1.76,1.76,0,0,0-.59-.79,2.25,2.25,0,0,0-.9-.17C59.82,13.63,57.4,14.78,57.39,17Z"/><path class="cls-4" d="M9.16,3.24a2.14,2.14,0,0,0-1,1.65,11,11,0,0,0,.06,2A5.3,5.3,0,0,0,8.41,8.2a1.28,1.28,0,0,0,.91.89,1.78,1.78,0,0,0,1.24-.43,11.94,11.94,0,0,0,2.55-2.31,1.45,1.45,0,0,0,.34-.73,1.85,1.85,0,0,0-.23-.71C12.55,3.65,10.78,2.37,9.16,3.24Z"/><path class="cls-4" d="M59.42,42.75a2.59,2.59,0,0,0,.2,2.34A13.89,13.89,0,0,0,61.11,47a6,6,0,0,0,1.11,1.2,1.55,1.55,0,0,0,1.54.24,2.12,2.12,0,0,0,.92-1.32,14.6,14.6,0,0,0,.9-4.13,1.81,1.81,0,0,0-.19-1,2.1,2.1,0,0,0-.73-.55C63.09,40.74,60.41,40.72,59.42,42.75Z"/><path class="cls-4" d="M47.46,61.56a1.76,1.76,0,0,0-.85,1.36,9.22,9.22,0,0,0,0,1.66,4.15,4.15,0,0,0,.11,1.11,1.05,1.05,0,0,0,.74.76,1.45,1.45,0,0,0,1-.34,10,10,0,0,0,2.18-1.88,1.23,1.23,0,0,0,.29-.6,1.64,1.64,0,0,0-.17-.6C50.28,62,48.83,60.86,47.46,61.56Z"/><path class="cls-3" d="M10.53,45.48c-.07-.56.09-1.19-.26-1.63"/><path class="cls-3" d="M12.15,3.38A.74.74,0,0,1,13,2.64"/><path class="cls-3" d="M58.73,14.43A3.27,3.27,0,0,0,57,14.16"/><path class="cls-3" d="M61.88,40.72a4.31,4.31,0,0,0,0-.72.69.69,0,0,1,.31-.62"/><path class="cls-3" d="M49.65,61.5a5.62,5.62,0,0,0,.21-1.73"/></g></g></svg>