<svg xmlns="http://www.w3.org/2000/svg" viewBox="0 0 72.32 72.32"><defs><style>.cls-1{fill:none;stroke:#3185fc;stroke-miterlimit:10;}.cls-2{fill:#3185fc;}</style></defs><g id="Calque_2" data-name="Calque 2"><g id="myrtille"><rect class="cls-1" x="0.5" y="0.5" width="71.32" height="71.32"/><circle class="cls-1" cx="36.16" cy="37.76" r="24.76"/><circle class="cls-2" cx="14.93" cy="7.72" r="2.7"/><circle class="cls-2" cx="4.21" cy="36.09" r="1.89"/><circle class="cls-2" cx="9.96" cy="50.15" r="2.7"/><circle class="cls-2" cx="48.78" cy="8.83" r="2.2"/><circle class="cls-2" cx="66.35" cy="25.68" r="2.7"/><circle class="cls-2" cx="60.04" cy="54.47" r="2.2"/><path class="cls-2" d="M7.06.17a3.76,3.76,0,0,1,3.52,2,3.77,3.77,0,0,1-.44,4C9.65,6.77,9,7.2,8.5,7.8c-1.42,1.78-.79,4.37-.13,6.54s1.21,4.81-.3,6.51c-.91,1-2.42,1.47-3.1,2.65-.81,1.4-.21,3.38-1.24,4.61-.84,1-2.36,1-3.67,1L.12.21Z"/><path class="cls-2" d="M71.59,18.37a1.52,1.52,0,0,1-1.71-.15,12.07,12.07,0,0,0-1.48-1.1c-1.59-.77-3.41.55-5.17.52a3.86,3.86,0,0,1-3.38-2.47c-.54-1.39-.33-3-1-4.34C57.5,8.18,53.61,8.14,51.51,6a4.93,4.93,0,0,1-1-5.39L71.73.43Z"/><path class="cls-2" d="M.17,67.34C.29,66,2,65.4,3.34,65.18s3-.71,3.24-2.07-1.09-2.24-1.5-3.45a3.51,3.51,0,0,1,1-3.44A7.48,7.48,0,0,1,9.3,54.45c1.58-.48,3.47-.68,4.72.39,1.52,1.29,1.5,4,3.26,4.9,1.44.77,3.35-.06,4.81.68a2.51,2.51,0,0,1,1.13,3.14,4.31,4.31,0,0,0-.52,1.24c-.12,1.33,2,2.36,1.41,3.55-.42.81-1.63.59-2.5.31-1.28-.41-3-.55-3.7.6-.54.87-.3,2.23-1.19,2.74H.45Z"/><path class="cls-2" d="M48.94,71.43a2.39,2.39,0,0,1,.94-2,15.7,15.7,0,0,0,1.74-1.51,3.29,3.29,0,0,0,.73-2c0-1.44-.87-3.06,0-4.2a2.34,2.34,0,0,1,1.3-.76c1.56-.37,3.15.29,4.66.81s3.3.87,4.63,0c1.5-1,1.77-3,2-4.77a1.61,1.61,0,0,1,.31-.88c.59-.7,1.8-.14,2.63-.54s.92-1.27,1.49-1.82a1.8,1.8,0,0,1,1.93-.35l.1,18.4Z"/><circle class="cls-2" cx="24.3" cy="28.51" r="1.89"/><circle class="cls-2" cx="46.13" cy="28.51" r="1.89"/><circle class="cls-1" cx="36.11" cy="51.05" r="7.34"/><path class="cls-2" d="M37.13,47.26A8.41,8.41,0,0,0,37,48.75a1.69,1.69,0,0,0,1.35,1.14c.61.14,1.25.1,1.85.24a.58.58,0,0,1,.34.17c.2.24,0,.62-.33.73a4,4,0,0,1-1.42,0c-.48,0-1,.29-1,.77,0,.3.29.53.52.73a3.43,3.43,0,0,1,1.49,2.7.29.29,0,0,1-.1.22.27.27,0,0,1-.2,0c-1.18-.32-1.76-1.61-2.41-2.65-.07-.11-.16-.24-.29-.25s-.33.22-.41.42c-.51,1.29-2.82,3-3.13,2.44-.41-.78.28-1.49.77-2.06.16-.19.36-.4.33-.64-.06-.41-.61-.47-1-.51A3,3,0,0,1,31.07,51c.14-1.29,3.34-.13,4.21-1.64a11.31,11.31,0,0,0,.55-2.15C36.11,46.43,37.11,46,37.13,47.26Z"/><path class="cls-2" d="M27.36,7.85a2.49,2.49,0,0,1,0-.94A.68.68,0,0,1,28,6.38c.38.07.52.52.63.89.65,2.4,2.54,4.22,4.36,5.91a39,39,0,0,1-5.93,1.39c-.43.07-.86.17-1.28.22,0-.93,1.1-2.3,1.36-3.34A9.29,9.29,0,0,0,27.36,7.85Z"/><path class="cls-2" d="M44,7.83a2.14,2.14,0,0,0,0-.94.67.67,0,0,0-.69-.53c-.38.07-.52.53-.62.9-.66,2.39-2.55,4.21-4.36,5.91a38.82,38.82,0,0,0,5.92,1.38c.43.07.81.65,1.23.7,0-.92-1-2.78-1.31-3.82A9.48,9.48,0,0,1,44,7.83Z"/><path class="cls-2" d="M34,11.21l1-2.79a2,2,0,0,1,.37-.7.66.66,0,0,1,.72-.18,1,1,0,0,1,.43.7c.48,1.9,1,2.95,1.52,4.85-.82-.48-1.81.06-2.76-.05-.35,0-1.52.22-1.75-.06S33.91,11.54,34,11.21Z"/><path class="cls-1" d="M30.77,62.23a4,4,0,0,1-.7,2.76c-1.43,2.64-3,5.36-5.6,6.9"/><path class="cls-1" d="M41.42,62.23A4,4,0,0,0,42.11,65c1.43,2.64,3,5.36,5.6,6.9"/><ellipse class="cls-1" cx="21.58" cy="38.13" rx="3.23" ry="1.37"/><ellipse class="cls-1" cx="48.88" cy="38.2" rx="3.23" ry="1.37"/></g></g></svg>