<svg xmlns="http://www.w3.org/2000/svg" viewBox="0 0 72.32 72.32"><defs><style>.cls-1,.cls-4,.cls-5{fill:none;}.cls-1,.cls-3,.cls-4,.cls-5{stroke:#ff6700;}.cls-1,.cls-3{stroke-miterlimit:10;}.cls-2,.cls-3{fill:#ff6700;}.cls-4,.cls-5{stroke-linecap:round;stroke-linejoin:round;}.cls-4{stroke-width:2px;}.cls-5{stroke-width:0.5px;}</style></defs><g id="Calque_2" data-name="Calque 2"><g id="ORANGE"><rect class="cls-1" x="0.5" y="0.5" width="71.32" height="71.32"/><path class="cls-2" d="M15.85.63a7.08,7.08,0,0,1,2.8,3.81,4.59,4.59,0,0,1-1.13,4.45c-1.31,1.21-3.3,1.36-4.77,2.37C10.5,12.8,10,15.92,10.13,18.65a19.37,19.37,0,0,1,0,3.49,4.52,4.52,0,0,1-1.59,3c-1,.75-2.44.89-3.26,1.84-1.08,1.25-.6,3.28-1.49,4.67A2.75,2.75,0,0,1,.59,32.71L.5.5Z"/><path class="cls-2" d="M57.41,71.87A4.76,4.76,0,0,1,60,67.23c1.07-.51,2.33-.6,3.3-1.29,1.54-1.1,1.76-3.28,1.69-5.18s-.28-4,.8-5.51c.61-.88,1.57-1.49,2.06-2.44a4.6,4.6,0,0,0,.39-2.21,36,36,0,0,0-.7-4.6A7.89,7.89,0,0,1,68,41.43a3.64,3.64,0,0,1,3.73-2.2l.13,32.59Z"/><path class="cls-2" d="M.44,52.73c2.15-1.25,4.76-1.31,7.25-1.34a3.86,3.86,0,0,1,1.69.23c1.2.55,1.51,2.05,2,3.29A4.38,4.38,0,0,0,14,57.85c1.3.35,2.64-.26,3.91-.69a6.8,6.8,0,0,1,3.59-.36A3.17,3.17,0,0,1,24,59.2,3.74,3.74,0,0,1,23.08,62a6.27,6.27,0,0,0-1,1.5,1.44,1.44,0,0,0,.33,1.65,3.94,3.94,0,0,0,.84.36,2.15,2.15,0,0,1,.92,3c-.14.22-.32.42-.45.65A3.08,3.08,0,0,0,24,71.85L.5,71.82Z"/><circle class="cls-1" cx="38.42" cy="34.16" r="27.07"/><path class="cls-1" d="M33.74,60.82c.07,1.79,0,3.59,0,5.38-.07,1.33-.25,2.79-1.24,3.67a5.14,5.14,0,0,1-1.68.9l-2.47,1"/><path class="cls-1" d="M44.35,60.82c-.07,1.79-.05,3.59,0,5.38.07,1.33.25,2.79,1.24,3.67a5.14,5.14,0,0,0,1.68.9l2.47,1"/><path class="cls-1" d="M34.2,2.71h3.34A14,14,0,0,0,37.26,7s-1.67.2-1.84.21c-.62,0-1,.21-1.17-.34a7.22,7.22,0,0,1,0-2C34.25,4.14,34.23,3.42,34.2,2.71Z"/><path class="cls-3" d="M41.16,3.69A22,22,0,0,1,52.6,3.14a6.17,6.17,0,0,1-1.75,4.92,7.12,7.12,0,0,1-1.62,1.1A10.41,10.41,0,0,1,38.6,8.44c-1-.75-1.87-1.74-.85-2.8A7.93,7.93,0,0,1,41.16,3.69Z"/><path class="cls-2" d="M54.56.63a3.15,3.15,0,0,0,.22,2.21c.58.9,1.84,1,2.91.94s2.27-.13,3,.61c1,.91.67,2.47,1.07,3.72a3.4,3.4,0,0,0,2.3,2.21,4.34,4.34,0,0,1,1.4.45,4.16,4.16,0,0,1,1,1.43,3.6,3.6,0,0,0,5.11.93L71.82.5Z"/><circle class="cls-2" cx="28.13" cy="25.87" r="2.8"/><circle class="cls-2" cx="46.51" cy="26.18" r="2.8"/><path class="cls-4" d="M36.29,54.72s14.19,1.09,19.35-9"/><path class="cls-5" d="M13.7,31.21s-.53,12.51,4.86,17.29"/><path class="cls-5" d="M15,35.9s.35,8.86,5.47,13"/><circle class="cls-2" cx="30.43" cy="15.71" r="0.61"/><circle class="cls-2" cx="32.52" cy="20.93" r="0.61"/><circle class="cls-2" cx="35.9" cy="27.92" r="0.61"/><circle class="cls-2" cx="37.45" cy="22.93" r="0.61"/><circle class="cls-2" cx="35.53" cy="17.52" r="0.61"/><circle class="cls-2" cx="36.26" cy="11.44" r="0.61"/><circle class="cls-2" cx="42.08" cy="19.92" r="0.61"/><circle class="cls-2" cx="41.92" cy="15.06" r="0.61"/><circle class="cls-2" cx="47.55" cy="16.73" r="0.61"/><circle class="cls-2" cx="48.67" cy="20.38" r="0.61"/><circle class="cls-2" cx="27.6" cy="16.09" r="0.61"/><circle class="cls-2" cx="26.41" cy="21.56" r="0.61"/><circle class="cls-2" cx="29.06" cy="11.53" r="0.61"/><circle class="cls-2" cx="20.48" cy="19.01" r="0.61"/><circle class="cls-2" cx="30.49" cy="32.51" r="0.61"/><circle class="cls-2" cx="18.84" cy="24.67" r="0.61"/><circle class="cls-2" cx="22.02" cy="27.51" r="0.61"/><circle class="cls-2" cx="15.34" cy="28.6" r="0.61"/><circle class="cls-2" cx="22.33" cy="32.65" r="0.61"/><circle class="cls-2" cx="24.79" cy="35.62" r="0.61"/><circle class="cls-2" cx="18.52" cy="32.99" r="0.61"/><path class="cls-1" d="M10.67,46.37a.51.51,0,0,1-.05.76,4.86,4.86,0,0,1-6.21-1,4.85,4.85,0,0,1-.75-6.24.5.5,0,0,1,.76,0Z"/><path class="cls-1" d="M5,40.5a6,6,0,0,0-2.15,2.2"/><path class="cls-1" d="M6,41.56a11,11,0,0,0-1.57,1.55,3.26,3.26,0,0,0-.95,1.77"/><path class="cls-1" d="M7,42.61A5.64,5.64,0,0,0,4.9,45.94a1.34,1.34,0,0,0,0,.69"/><path class="cls-1" d="M8.06,43.69a4,4,0,0,0-1.21,1.74,8.28,8.28,0,0,0-.44,2.09"/><path class="cls-1" d="M9.21,45A4.6,4.6,0,0,0,8,47.87"/><path class="cls-1" d="M10.28,45.9a1.72,1.72,0,0,0-.56,1.69"/><path class="cls-1" d="M54.3,59.81a.51.51,0,0,1,.69-.32,5.2,5.2,0,0,1-2.88,9.58.49.49,0,0,1-.39-.64Z"/><path class="cls-1" d="M52,67.64a5.91,5.91,0,0,0,3,.79"/><path class="cls-1" d="M52.42,66.27a12.06,12.06,0,0,0,2.11.6,3.28,3.28,0,0,0,2,0"/><path class="cls-1" d="M52.84,64.88a5.72,5.72,0,0,0,3.91.16,1.24,1.24,0,0,0,.6-.34"/><path class="cls-1" d="M53.25,63.39a4.06,4.06,0,0,0,2.1.21,8.49,8.49,0,0,0,2-.64"/><path class="cls-1" d="M53.81,61.76a4.52,4.52,0,0,0,3.13-.32"/><path class="cls-1" d="M54.09,60.38A1.75,1.75,0,0,0,55.84,60"/><path class="cls-1" d="M61.6,16.25a.52.52,0,0,1,0-.78A5,5,0,0,1,68,16.2a5,5,0,0,1,1,6.34.51.51,0,0,1-.77.07Z"/><path class="cls-1" d="M67.67,22a6.1,6.1,0,0,0,2.1-2.35"/><path class="cls-1" d="M66.62,21a10.4,10.4,0,0,0,1.53-1.65,3.38,3.38,0,0,0,.91-1.85"/><path class="cls-1" d="M65.55,19.94a5.83,5.83,0,0,0,2-3.5,1.27,1.27,0,0,0,0-.7"/><path class="cls-1" d="M64.38,18.87a4.07,4.07,0,0,0,1.16-1.82,8.35,8.35,0,0,0,.36-2.16"/><path class="cls-1" d="M63.15,17.61a4.63,4.63,0,0,0,1.16-3"/><path class="cls-1" d="M62,16.71a1.79,1.79,0,0,0,.5-1.75"/><path class="cls-1" d="M21,10.68a.5.5,0,0,1-.75-.08,4.85,4.85,0,0,1,1.2-6.17,4.85,4.85,0,0,1,6.26-.52.5.5,0,0,1,0,.76Z"/><path class="cls-1" d="M27.12,5.2A6,6,0,0,0,25,3"/><path class="cls-1" d="M26,6.15a10.89,10.89,0,0,0-1.49-1.62,3.26,3.26,0,0,0-1.73-1"/><path class="cls-1" d="M24.94,7.12a5.66,5.66,0,0,0-3.26-2.19,1.31,1.31,0,0,0-.68,0"/><path class="cls-1" d="M23.81,8.17A4,4,0,0,0,22.12,6.9a8.06,8.06,0,0,0-2.07-.52"/><path class="cls-1" d="M22.49,9.27a4.62,4.62,0,0,0-2.84-1.36"/><path class="cls-1" d="M21.53,10.31a1.74,1.74,0,0,0-1.67-.63"/></g></g></svg>